<svg xmlns="http://www.w3.org/2000/svg" viewBox="0 0 48 48"><path d="M20 17c1.3.6 2.9 1 5.8 1.3.8.1 2.7-.1 5-.2 1.9-.1 3.8.2 3.9-.5.1-.3-.3-.7-.5-.8-.4-.3-.9-.2-1.5-.1-1.7.3-2.6.5-3.1.3-.8-.2-.8-.2-1.7-.4-.8-.2-1 .3-2.6.4-1.3 0-2.3-.7-3-1-.8-.4-1.3-.8-2-1.1-1.3-.5-3.2.5-3.3 1.1 0 .5 2.1.6 3 1z" fill="#5d4037"/><path d="M2 12.8c.8 1.2 1.7 2.1 2.2 2.6 1.2 1 1.9 1.2 3.2 2.4.4.4.7.7 1.3 1.5 1.4 1.6 1.6 2.1 2.4 2.6.2.1 1 .7 2.1 1 1.6.4 2.1-.2 4.2.1.9.2 1.6.3 2 .8.2.3.2 1 .1 2.2-.1 1.7-.1 2.5-.3 2.8-.1.2-.4.6-2.3 1.3-2.4 1-3.7.9-3.8 1.6-.1.5.3 1 .7 1.2.4.2.8-.1 1.9-.6 1.2-.5 1-.2 2.9-1 1.1-.4 1.4-.6 1.8-.4.4.1.7.4 1.3 1.3.9 1.3 1.3 2 1.3 2 1.8 3.4 2.1 4.1 2.4 4 .2-.1.2-1.1.1-1.6-.2-1.4-.7-2.2-1.8-4.4-.6-1.1-.9-1.7-1.2-2.5-1.2-2.7-1-3.4-.8-3.9.3-.5.7-.8 1.2-.9 1.1-.3 2.2.6 2.8 1.2 1.2 1 .9 1.4 1.9 2.1.9.6 1.8.7 3.1.9 1.3.2 1.3 0 1.9.2 1.1.3 1.6 1.1 2.8 2.6 1.7 2 3 3.6 3.8 3.3.5-.2.6-1 .6-1.5 0-1.6-1.4-2.7-3.5-4.4-.6-.5-1.4-1.1-2.6-1.7-1.2-.7-1.5-.6-3.5-1.4-2-.8-3.3-1.4-4.8-2.4-1.2-.9-1.2-1.1-2.2-1.5-1.3-.6-1.9-.5-3.8-.8-1-.1-3.2-.6-5.5-1.7-1-.5-2.9-1.4-2.8-2.2.1-.6.9-.9 1.3-1 .8-.3 1.4-.2 3.1-.1 1.2 0 1.7.1 2.3 0 1.3-.2 2.3-.6 3.3-1.2 1.9-1 1.9-1.5 3.8-2.6 1.7-1 2.8-1.1 2.8-1.4-.1-.3-1.7-.4-3.1-.2-.5.1-2 .4-3.6 1.4-.8.5-.8.8-1.6 1.2-1.2.6-2.2.7-2.5.7-1.1.1-2-.2-2.5-.3-.8-.2-.8-.4-1.3-.4-.9 0-1.6.3-2.1.6-.9.5-.9.8-1.5.8-.7.1-1.4-.4-1.8-.7-2-1.8-5.2-5.2-5.7-5.6z" fill="#5d4037"/><path d="M37.1 19.8l-1.3-1.1-1.6.5.6-1.6-.9-1.4 1.6.1 1.1-1.3.4 1.6 1.6.6-1.4.9z" fill="#c2185b"/><path d="M27.1 40.6l-1.6-.6-1.4.9.1-1.6-1.3-1.1 1.6-.4.6-1.6.9 1.4 1.7.1-1.1 1.3zM41.3 38.8l-2.4-1.7-2.7 1 .9-2.7-1.8-2.3h2.9l1.6-2.4.9 2.7 2.8.8-2.3 1.7z" fill="#ec407a"/><path d="M12 35.9l-.7-1.6-1.7-.4 1.3-1.1-.1-1.8 1.5 1 1.6-.7-.4 1.7 1.1 1.3-1.7.1z" fill="#c2185b"/><path d="M36.6 27.9l-.1 1.4-1.1-.9c-.7.7-.7 2.1-.3 3 .8 1.9 3.5 3 3.5 3s1.1-2.7.3-4.6c-.4-1-1.3-1.9-2.3-1.9zM45.1 30.3l-1.3.3.5-1.3c-.9-.5-2.2 0-2.9.6-1.5 1.4-1.7 4.3-1.7 4.3s2.9.2 4.5-1.2c.6-.5 1.2-1.7.9-2.7zM45.5 38.7l-.9-1.1H46c0-1-.9-2-1.8-2.4-1.9-.9-4.6.1-4.6.1s1 2.7 2.9 3.6c.9.4 2.2.5 3-.2zM31.5 35l1.3.5-1.2.7c.5.9 1.8 1.3 2.7 1.2 2.1-.2 4-2.4 4-2.4s-2.2-1.9-4.3-1.8c-.9.2-2.1.8-2.5 1.8zM37.6 42.1l.7-1.2.5 1.3c1-.3 1.6-1.5 1.7-2.5.2-2.1-1.7-4.3-1.7-4.3s-2.2 1.9-2.4 3.9c-.1 1 .3 2.3 1.2 2.8z" fill="#f48fb1"/><path d="M34.3 12.3l-.1 1-.8-.7c-.5.5-.5 1.5-.2 2.2.6 1.4 2.6 2.2 2.6 2.2s.8-2 .2-3.4c-.3-.6-.9-1.3-1.7-1.3zM40.5 14.1l-1 .3.4-.9c-.7-.3-1.6 0-2.1.5-1.1 1-1.3 3.1-1.3 3.1s2.1.1 3.3-.9c.5-.5 1-1.3.7-2.1zM40.7 20.2l-.6-.8h1c0-.8-.7-1.5-1.3-1.8-1.4-.6-3.4.1-3.4.1s.7 2 2.1 2.7c.6.3 1.6.3 2.2-.2zM30.6 17.5l.9.4-.9.5c.3.7 1.3 1 2 .9 1.5-.1 2.9-1.7 2.9-1.7s-1.6-1.4-3.1-1.3c-.7.1-1.5.5-1.8 1.2zM34.6 22.7l.6-.8.3 1c.7-.2 1.2-1 1.4-1.7.2-1.5-1-3.2-1-3.2s-1.7 1.2-2 2.7c-.1.6.1 1.6.7 2z" fill="#f06292"/><path d="M22.9 34.7l.1.8-.7-.4c-.3.5-.1 1.3.2 1.8.7 1 2.5 1.3 2.5 1.3s.3-1.8-.5-2.8c-.3-.4-1-.8-1.6-.7zM28.2 35.1l-.7.4.1-.8c-.6-.1-1.3.3-1.6.8-.7 1-.5 2.8-.5 2.8S27.2 38 28 37c.4-.6.6-1.4.2-1.9zM29.6 39.9l-.7-.5.8-.2c-.1-.6-.8-1.1-1.4-1.2-1.2-.3-2.7.7-2.7.7s1 1.5 2.2 1.8c.6.1 1.4 0 1.8-.6zM20.8 39.6l.8.1-.6.6c.4.5 1.2.5 1.8.4 1.2-.4 2-1.9 2-1.9s-1.6-.8-2.8-.5c-.4.2-1.1.7-1.2 1.3zM25.4 43l.3-.8.5.7c.5-.3.7-1.1.7-1.7-.2-1.2-1.5-2.3-1.5-2.3s-1.1 1.4-.9 2.6c-.1.6.3 1.3.9 1.5z" fill="#f48fb1"/><path d="M7.6 30.9l.6.7-.9.1c0 .7.6 1.3 1.2 1.6 1.3.6 3.1-.2 3.1-.2s-.7-1.8-2-2.4c-.5-.3-1.5-.3-2 .2zM13 28.1l-.5.8-.4-.9c-.7.2-1.1 1-1.1 1.7-.1 1.4 1.1 2.9 1.1 2.9s1.5-1.3 1.7-2.7c0-.6-.2-1.5-.8-1.8zM17 32l-.9-.1.7-.7c-.5-.5-1.4-.6-2-.4-1.3.4-2.2 2.2-2.2 2.2s1.8.9 3.1.4c.6-.1 1.3-.7 1.3-1.4zM8.4 36.7l.9-.3-.3.9c.7.2 1.5-.2 1.9-.6.9-1 .9-3 .9-3s-2 .1-2.9 1.1c-.4.4-.8 1.3-.5 1.9zM14.7 37.4l-.2-.9.8.4c.3-.6.1-1.5-.3-2-.9-1.1-2.8-1.4-2.8-1.4s-.3 2 .6 3.1c.5.5 1.2 1 1.9.8z" fill="#f06292"/><path d="M29.8 12.3l-1-1.1-1.5.2.8-1.3-.7-1.3 1.5.3 1.1-1 .1 1.5 1.3.7-1.3.6z" fill="#ec407a"/><path d="M24.9 9.6l.7.4-.7.3c.2.6.9.9 1.4.9 1.2.1 2.4-1 2.4-1S27.6 9 26.4 8.9c-.5-.1-1.2.1-1.5.7zM28.3 5.9l-.2.8-.5-.7c-.5.4-.6 1.1-.4 1.7.3 1.1 1.7 2 1.7 2s.8-1.4.5-2.6c0-.5-.5-1.2-1.1-1.2zM32.7 7.8l-.8.2.3-.7c-.5-.3-1.3-.1-1.7.3-.9.7-1.1 2.4-1.1 2.4s1.7.2 2.6-.5c.4-.5.8-1.2.7-1.7zM27.2 14l.6-.5.1.8c.6 0 1.1-.6 1.3-1.1.4-1.1-.2-2.6-.2-2.6s-1.5.6-2 1.7c-.2.5-.2 1.2.2 1.7zM32.4 12.7L32 12l.8.1c.1-.6-.4-1.2-.8-1.5-1-.6-2.6-.3-2.6-.3s.4 1.6 1.4 2.3c.4.3 1.1.4 1.6.1z" fill="#f48fb1"/></svg>
